<svg width="52" height="52" viewBox="0 0 52 52" fill="none" xmlns="http://www.w3.org/2000/svg">
<rect x="0.5" y="0.5" width="51" height="51" rx="25.5" stroke="#222222"/>
<path d="M24.3914 44.0059L24.3916 44.006C24.8215 44.3707 25.357 44.5667 25.9098 44.5667C26.0645 44.5667 26.2172 44.5489 26.3697 44.5203L26.371 44.5201C27.3085 44.3355 28.0562 43.5644 28.2369 42.604C28.3887 41.7977 28.1501 40.9713 27.5899 40.3936C27.3978 40.1955 27.1742 40.0319 26.9273 39.9119L26.9271 39.9118C26.6298 39.7679 26.4549 39.4924 26.4549 39.1991V31.1595C26.4549 30.854 26.2144 30.5993 25.9072 30.5993C25.5999 30.5993 25.3595 30.854 25.3595 31.1595V39.1991C25.3595 39.934 25.7812 40.592 26.4535 40.9225L26.4549 40.9232C26.5859 40.9859 26.7042 41.0733 26.8098 41.1822C27.1166 41.4986 27.2465 41.9381 27.1599 42.3922C27.0595 42.9121 26.6559 43.3246 26.1623 43.4217C25.7687 43.4979 25.3909 43.3999 25.0923 43.1457L25.0922 43.1456C24.7953 42.8934 24.6253 42.52 24.6253 42.1196C24.6253 41.7797 24.7519 41.4555 24.98 41.2102C25.1887 40.9874 25.1826 40.6353 24.9657 40.4219C24.7466 40.2035 24.3967 40.2105 24.1877 40.4371C23.7641 40.8942 23.5299 41.4913 23.5299 42.1196C23.5299 42.8516 23.8427 43.5392 24.3914 44.0059Z" fill="black" stroke="black" stroke-width="0.3"/>
<path d="M41.2317 35.7379L41.2318 35.7379C41.7536 35.5244 42.1744 35.1396 42.4292 34.6489C42.5005 34.5117 42.5551 34.368 42.6001 34.2195L42.6004 34.2182C42.8687 33.3012 42.5291 32.2822 41.7601 31.6792C41.1145 31.1728 40.2712 31.0036 39.5003 31.2345C39.236 31.3136 38.9877 31.4366 38.7674 31.6004L38.7672 31.6006C38.5025 31.7981 38.1774 31.8263 37.9171 31.6911L30.7824 27.9854C30.5114 27.8446 30.1744 27.9406 30.0328 28.2133C29.8912 28.4859 30.0064 28.8168 30.2775 28.9575L37.4121 32.6633C38.0643 33.002 38.8427 32.9311 39.4458 32.4867L39.4471 32.4858C39.5631 32.3985 39.6953 32.3338 39.8405 32.2903C40.2627 32.1639 40.7126 32.2511 41.0757 32.5373C41.4908 32.866 41.6708 33.4143 41.5295 33.8971C41.4157 34.2816 41.1546 34.5716 40.7914 34.7195L40.7912 34.7195C40.4305 34.8667 40.0208 34.8455 39.6655 34.6609C39.3638 34.5042 39.1344 34.2425 39.022 33.927C38.9205 33.6391 38.6051 33.4822 38.3158 33.5763C38.021 33.67 37.8659 33.9838 37.9707 34.2738C38.1811 34.8604 38.603 35.3435 39.1606 35.6331C39.8102 35.9705 40.5645 36.0098 41.2317 35.7379Z" fill="black" stroke="black" stroke-width="0.3"/>
<path d="M25.3595 21.2245L25.3595 21.2245V21.2289C25.3595 21.5343 25.5999 21.789 25.9072 21.789C26.2112 21.789 26.4549 21.5349 26.4549 21.2289H26.455L26.4549 21.2245L26.0571 7.57897L26.0529 7.43334H26.0441H26.0441H26.0441H26.0441H26.0441H26.044H26.044H26.044H26.044H26.044H26.0439H26.0439H26.0438H26.0438H26.0438H26.0437H26.0437H26.0436H26.0436H26.0435H26.0434H26.0434H26.0433H26.0432H26.0432H26.0431H26.043H26.0429H26.0429H26.0427H26.0427H26.0425H26.0423H26.0423H26.0421H26.0421H26.0419H26.0418H26.0417H26.0416H26.0414H26.0413H26.0412H26.041H26.0409H26.0407H26.0406H26.0404H26.0403H26.0401H26.0401H26.0398H26.0397H26.0394H26.0394H26.0391H26.039H26.0388H26.0386H26.0384H26.0382H26.0381H26.0378H26.0377H26.0374H26.0373H26.037H26.037H26.0366H26.0365H26.0362H26.036H26.0358H26.0355H26.0353H26.035H26.0349H26.0345H26.0345H26.034H26.034H26.0336H26.0334H26.0331H26.0329H26.0326H26.0323H26.0322H26.0317H26.0317H26.0312H26.0311H26.0307H26.0304H26.0302H26.0298H26.0296H26.0291H26.0291H26.0286H26.0285H26.028H26.0278H26.0275H26.0271H26.0269H26.0263H26.0263H26.0257H26.0256H26.0252H26.0248H26.0246H26.024H26.024H26.0233H26.0232H26.0227H26.0224H26.0221H26.0216H26.0215H26.0208H26.0208H26.0202H26.0199H26.0195H26.019H26.0189H26.0182H26.0181H26.0176H26.0172H26.0169H26.0163H26.0162H26.0155H26.0153H26.0148H26.0144H26.0141H26.0134H26.0134H26.0127H26.0124H26.012H26.0113H26.0112H26.0105H26.0103H26.0098H26.0092H26.009H26.0083H26.0082H26.0075H26.0071H26.0067H26.006H26.006H26.0052H26.0048H26.0044H26.0037H26.0037H26.0029H26.0025H26.0021H26.0013H26.0013H26.0005H26.0001H25.9997H25.9989H25.9989H25.9981H25.9977H25.9972H25.9964H25.9964H25.9956H25.9951H25.9948H25.9939H25.9938H25.9931H25.9925H25.9922H25.9914H25.9912H25.9906H25.9898H25.9897H25.9888H25.9884H25.988H25.9871H25.987H25.9863H25.9856H25.9854H25.9845H25.9842H25.9836H25.9828H25.9827H25.9819H25.9812H25.981H25.9801H25.9797H25.9792H25.9783H25.9782H25.9774H25.9767H25.9765H25.9756H25.9751H25.9747H25.9738H25.9735H25.9729H25.972H25.9719H25.9711H25.9703H25.9702H25.9693H25.9687H25.9684H25.9674H25.967H25.9665H25.9656H25.9653H25.9647H25.9638H25.9636H25.9628H25.9619H25.9619H25.961H25.9602H25.9601H25.9591H25.9584H25.9582H25.9573H25.9566H25.9564H25.9554H25.9548H25.9545H25.9536H25.953H25.9526H25.9517H25.9511H25.9508H25.9498H25.9493H25.9489H25.948H25.9474H25.9471H25.9461H25.9455H25.9452H25.9443H25.9435H25.9433H25.9424H25.9416H25.9415H25.9406H25.9396H25.9396H25.9387H25.9378H25.9376H25.9369H25.936H25.9356H25.935H25.9341H25.9335H25.9332H25.9323H25.9314H25.9314H25.9305H25.9296H25.9294H25.9287H25.9278H25.9272H25.9269H25.926H25.9251H25.9251H25.9242H25.9233H25.9229H25.9224H25.9215H25.9208H25.9206H25.9197H25.9188H25.9186H25.918H25.9171H25.9163H25.9162H25.9154H25.9145H25.9141H25.9136H25.9129H25.9129H25.9129H25.9129H25.9129H25.9128H25.9128H25.9128H25.9128H25.9128H25.9128H25.9128H25.9127H25.9127H25.9126H25.9126H25.9126H25.9126H25.9125H25.9125H25.9124H25.9124H25.9123H25.9123H25.9122H25.9122H25.912H25.9119H25.9119H25.9118H25.9118H25.9118H25.9116H25.9116H25.9115H25.9114H25.9113H25.9113H25.9111H25.9111H25.9111H25.911H25.9109H25.9108H25.9106H25.9106H25.9104H25.9104H25.9102H25.9102H25.9101H25.9099H25.9099H25.9097H25.9097H25.9095H25.9094H25.9094H25.9094H25.9092H25.9091H25.9089H25.9088H25.9087H25.9085H25.9085H25.9084H25.9082H25.9081H25.9079H25.9078H25.9077H25.9075H25.9075H25.9072H25.9072H25.9069H25.9069H25.9066H25.9063H25.9061H25.9059H25.9059H25.9056H25.9052H25.9052H25.9049H25.9049H25.9047H25.9045H25.9044H25.9041H25.9038H25.9036H25.9034H25.9034H25.903H25.9028H25.9026H25.9026H25.9022H25.9022H25.902H25.9017H25.9013H25.9012H25.901H25.9009H25.9005H25.9004H25.9003H25.9H25.8998H25.8996H25.8996H25.8991H25.8988H25.8987H25.8986H25.8982H25.898H25.898H25.8977H25.8975H25.8973H25.8972H25.8968H25.8965H25.8964H25.8963H25.8958H25.8958H25.8957H25.8953H25.8952H25.895H25.8947H25.8942H25.8942H25.8942H25.8937H25.8936H25.8935H25.8932H25.8931H25.8927H25.8926H25.8921H25.892H25.892H25.8916H25.8914H25.8912H25.891H25.891H25.8905H25.8905H25.89H25.8899H25.8898H25.8893H25.8892H25.8891H25.889H25.8888H25.8884H25.8882H25.888H25.8877H25.8876H25.887H25.887H25.887H25.887H25.8864H25.8863H25.8861H25.8858H25.8856H25.8852H25.8851H25.8849H25.8849H25.8846H25.8842H25.8842H25.884H25.8836H25.8834H25.8833H25.8829H25.8828H25.8827H25.8824H25.8823H25.8822H25.8816H25.8816H25.8815H25.881H25.8809H25.8807H25.8806H25.8803H25.8802H25.8799H25.8797H25.8796H25.8791H25.8791H25.879H25.8785H25.8785H25.8783H25.8783H25.8779H25.8777H25.8775H25.8773H25.877H25.8768H25.8767H25.8765H25.8763H25.8761H25.876H25.8757H25.8756H25.8753H25.875H25.875H25.8746H25.8744H25.8744H25.8743H25.8739H25.8739H25.8736H25.8734H25.8732H25.873H25.8728H25.8726H25.8724H25.8723H25.8723H25.8719H25.8718H25.8716H25.8713H25.8713H25.8709H25.8708H25.8707H25.8704H25.8703H25.8702H25.8701H25.8698H25.8695H25.8695H25.8693H25.8689H25.8689H25.8688H25.8684H25.8684H25.8684H25.8681H25.868H25.8678H25.8675H25.8674H25.8673H25.8671H25.8668H25.8667H25.8667H25.8664H25.8663H25.8663H25.8659H25.8659H25.8659H25.8655H25.8654H25.8652H25.8651H25.865H25.8647H25.8645H25.8645H25.8644H25.8643H25.8641H25.864H25.8638H25.8637H25.8637H25.8633H25.8633H25.863H25.863H25.863H25.8627H25.8626H25.8625H25.8624H25.8623H25.8623H25.8621H25.862H25.8618H25.8617H25.8616H25.8615H25.8614H25.8613H25.8611H25.861H25.8608H25.8608H25.8608H25.8606H25.8605H25.8603H25.8601H25.8601H25.8601H25.8599H25.8599H25.8597H25.8597H25.8596H25.8595H25.8594H25.8594H25.8593H25.8592H25.8592H25.8591H25.859H25.859H25.8589H25.8588H25.8588H25.8587H25.8587H25.8587H25.8586H25.8586H25.8586H25.8586H25.8585H25.8585H25.8585H25.8584H25.8584H25.8584H25.8584H25.8584H25.8583H25.8583H25.8583H25.8583H25.8579H25.8571H25.8568H25.8564H25.8556H25.8549H25.8549H25.8541H25.8534H25.853H25.8526H25.8518H25.8512H25.8511H25.8503H25.8495H25.8494H25.8488H25.848H25.8476H25.8472H25.8464H25.8458H25.8457H25.8449H25.8441H25.8441H25.8433H25.8425H25.8423H25.8418H25.841H25.8406H25.8402H25.8394H25.8389H25.8386H25.8378H25.8372H25.837H25.8362H25.8355H25.8355H25.8347H25.8339H25.8339H25.8331H25.8323H25.8322H25.8315H25.8307H25.8306H25.8299H25.8291H25.829H25.8283H25.8275H25.8274H25.8267H25.826H25.8258H25.8252H25.8244H25.8243H25.8236H25.8228H25.8228H25.822H25.8212H25.8212H25.8204H25.8197H25.8196H25.8188H25.8183H25.818H25.8173H25.8168H25.8165H25.8157H25.8153H25.8149H25.8141H25.8139H25.8133H25.8126H25.8125H25.8118H25.8111H25.811H25.8102H25.8097H25.8094H25.8087H25.8083H25.8079H25.8071H25.807H25.8064H25.8056H25.8056H25.8048H25.8043H25.8041H25.8033H25.803H25.8025H25.8018H25.8017H25.801H25.8004H25.8003H25.7995H25.7992H25.7988H25.798H25.7979H25.7973H25.7967H25.7965H25.7958H25.7955H25.795H25.7943H25.7943H25.7936H25.7931H25.7928H25.7921H25.792H25.7914H25.7908H25.7907H25.79H25.7897H25.7892H25.7886H25.7885H25.7878H25.7875H25.7871H25.7864H25.7864H25.7857H25.7853H25.785H25.7843H25.7843H25.7836H25.7832H25.7829H25.7823H25.7822H25.7816H25.7812H25.7809H25.7802H25.7802H25.7796H25.7792H25.7789H25.7783H25.7782H25.7776H25.7773H25.777H25.7763H25.7763H25.7757H25.7754H25.775H25.7745H25.7744H25.7738H25.7736H25.7731H25.7727H25.7725H25.7719H25.7719H25.7713H25.771H25.7707H25.7702H25.7701H25.7695H25.7694H25.7689H25.7686H25.7683H25.7678H25.7677H25.7672H25.767H25.7666H25.7662H25.766H25.7655H25.7655H25.7649H25.7647H25.7644H25.764H25.7638H25.7633H25.7633H25.7628H25.7626H25.7622H25.7619H25.7617H25.7615H25.7612H25.7612H25.7607H25.7606H25.7602H25.7599H25.7597H25.7593H25.7592H25.7587H25.7587H25.7582H25.7581H25.7578H25.7575H25.7573H25.7569H25.7569H25.7564H25.7563H25.756H25.7558H25.7555H25.7553H25.7551H25.7547H25.7547H25.7542H25.7542H25.7538H25.7537H25.7534H25.7532H25.753H25.7527H25.7526H25.7523H25.7522H25.7519H25.7518H25.7515H25.7514H25.7511H25.751H25.7508H25.7505H25.7504H25.7501H25.7501H25.7498H25.7497H25.7494H25.7494H25.7491H25.749H25.7488H25.7487H25.7485H25.7483H25.7482H25.748H25.7479H25.7477H25.7476H25.7474H25.7474H25.7471H25.7471H25.7468H25.7468H25.7466H25.7465H25.7464H25.7462H25.7461H25.746H25.7459H25.7457H25.7457H25.7455H25.7455H25.7453H25.7453H25.7451H25.7451H25.7449H25.7449H25.7447H25.7447H25.7446H25.7445H25.7444H25.7444H25.7443H25.7442H25.7441H25.7441H25.744H25.744H25.7439H25.7438H25.7438H25.7437H25.7437H25.7436H25.7436H25.7436H25.7435H25.7435H25.7435H25.7434H25.7434H25.7434H25.7433H25.7433H25.7433H25.7433H25.7433H25.7432H25.7432H25.7432H25.7432H25.7432L25.7432 7.58334L25.7432 7.73334H25.7432H25.7432H25.7432H25.7432H25.7433H25.7433H25.7433H25.7433H25.7433H25.7434H25.7434H25.7434H25.7435H25.7435H25.7435H25.7436H25.7436H25.7436H25.7437H25.7437H25.7438H25.7438H25.7439H25.744H25.744H25.7441H25.7441H25.7442H25.7443H25.7444H25.7444H25.7445H25.7446H25.7447H25.7447H25.7449H25.7449H25.7451H25.7451H25.7453H25.7453H25.7455H25.7455H25.7457H25.7457H25.7459H25.746H25.7461H25.7462H25.7464H25.7465H25.7466H25.7468H25.7468H25.7471H25.7471H25.7474H25.7474H25.7476H25.7477H25.7479H25.748H25.7482H25.7483H25.7485H25.7487H25.7488H25.749H25.7491H25.7494H25.7494H25.7497H25.7498H25.7501H25.7501H25.7504H25.7505H25.7508H25.751H25.7511H25.7514H25.7515H25.7518H25.7519H25.7522H25.7523H25.7526H25.7527H25.7528L25.3595 21.2245Z" fill="black" stroke="black" stroke-width="0.3"/>
<path d="M21.4609 24.3781L21.4609 24.3782L21.4647 24.3802C21.7358 24.521 22.0727 24.425 22.2143 24.1523C22.3544 23.8826 22.2413 23.5491 21.9697 23.4081L21.9697 23.408L21.9658 23.4061L9.67294 17.4694L9.54175 17.4061L9.53769 17.4139L9.53769 17.4139L9.53769 17.4139L9.53768 17.4139L9.53767 17.4139L9.53767 17.4139L9.53766 17.4139L9.53765 17.4139L9.53764 17.414L9.53763 17.414L9.53761 17.414L9.5376 17.4141L9.53758 17.4141L9.53756 17.4141L9.53754 17.4142L9.53752 17.4142L9.5375 17.4142L9.53747 17.4143L9.53745 17.4143L9.53741 17.4144L9.53739 17.4144L9.53735 17.4145L9.53733 17.4146L9.53729 17.4146L9.53727 17.4147L9.53721 17.4148L9.5372 17.4148L9.53714 17.4149L9.53712 17.415L9.53705 17.4151L9.53704 17.4151L9.53696 17.4153L9.53687 17.4155L9.53686 17.4155L9.53677 17.4156L9.53676 17.4157L9.53667 17.4158L9.53665 17.4159L9.53657 17.416L9.53653 17.4161L9.53645 17.4162L9.53641 17.4163L9.53634 17.4165L9.53628 17.4166L9.53622 17.4167L9.53614 17.4169L9.53609 17.4169L9.536 17.4171L9.53596 17.4172L9.53585 17.4174L9.53583 17.4175L9.53569 17.4177L9.53569 17.4177L9.53554 17.418L9.53553 17.418L9.5354 17.4183L9.53536 17.4184L9.53524 17.4186L9.53518 17.4187L9.53508 17.4189L9.535 17.4191L9.53492 17.4192L9.53481 17.4194L9.53475 17.4195L9.53461 17.4198L9.53458 17.4199L9.53441 17.4202L9.53441 17.4202L9.53423 17.4205L9.53419 17.4206L9.53404 17.4209L9.53398 17.421L9.53385 17.4213L9.53375 17.4215L9.53366 17.4216L9.53352 17.4219L9.53346 17.422L9.53328 17.4224L9.53326 17.4224L9.53306 17.4228L9.53303 17.4228L9.53285 17.4232L9.53278 17.4233L9.53263 17.4236L9.53252 17.4238L9.53241 17.424L9.53225 17.4243L9.53219 17.4245L9.53197 17.4249L9.53197 17.4249L9.53174 17.4253L9.53169 17.4254L9.5315 17.4258L9.5314 17.426L9.53126 17.4262L9.5311 17.4266L9.53102 17.4267L9.5308 17.4271L9.53078 17.4272L9.53053 17.4277L9.53049 17.4277L9.53028 17.4281L9.53016 17.4284L9.53002 17.4286L9.52984 17.429L9.52976 17.4291L9.5295 17.4296L9.5295 17.4296L9.52923 17.4302L9.52916 17.4303L9.52896 17.4307L9.52881 17.431L9.52869 17.4312L9.52845 17.4317L9.52841 17.4317L9.52813 17.4323L9.52808 17.4324L9.52784 17.4328L9.52771 17.4331L9.52756 17.4334L9.52733 17.4338L9.52727 17.4339L9.52697 17.4345L9.52694 17.4346L9.52668 17.4351L9.52654 17.4353L9.52638 17.4357L9.52613 17.4361L9.52607 17.4362L9.52577 17.4368L9.52572 17.4369L9.52546 17.4374L9.5253 17.4377L9.52514 17.438L9.52487 17.4386L9.52483 17.4386L9.52451 17.4392L9.52443 17.4394L9.52419 17.4399L9.52398 17.4403L9.52387 17.4405L9.52354 17.4411L9.52353 17.4411L9.52321 17.4417L9.52307 17.442L9.52288 17.4424L9.5226 17.4429L9.52254 17.443L9.5222 17.4437L9.52212 17.4439L9.52186 17.4443L9.52163 17.4448L9.52152 17.445L9.52118 17.4457L9.52113 17.4457L9.52083 17.4463L9.52063 17.4467L9.52048 17.447L9.52013 17.4477L9.52012 17.4477L9.51977 17.4484L9.51959 17.4487L9.51941 17.4491L9.51906 17.4497L9.51905 17.4498L9.51869 17.4504L9.51853 17.4508L9.51833 17.4512L9.51798 17.4518L9.51796 17.4519L9.51759 17.4526L9.51742 17.4529L9.51722 17.4533L9.51686 17.454L9.51685 17.454L9.51647 17.4547L9.51629 17.4551L9.5161 17.4554L9.51572 17.4562L9.5157 17.4562L9.51534 17.4569L9.51511 17.4573L9.51495 17.4576L9.51457 17.4584L9.51451 17.4585L9.51418 17.4591L9.51391 17.4597L9.51379 17.4599L9.5134 17.4606L9.51329 17.4608L9.51301 17.4614L9.51266 17.4621L9.51262 17.4621L9.51222 17.4629L9.51203 17.4633L9.51183 17.4637L9.51143 17.4644L9.51138 17.4645L9.51103 17.4652L9.51073 17.4658L9.51063 17.466L9.51023 17.4667L9.51007 17.4671L9.50982 17.4675L9.50942 17.4683L9.5094 17.4683L9.50901 17.4691L9.50871 17.4697L9.5086 17.4699L9.50819 17.4707L9.50802 17.471L9.50778 17.4714L9.50737 17.4722L9.50733 17.4723L9.50696 17.473L9.50662 17.4737L9.50655 17.4738L9.50613 17.4746L9.5059 17.4751L9.50572 17.4754L9.5053 17.4762L9.50517 17.4765L9.50488 17.477L9.50446 17.4778L9.50444 17.4779L9.50404 17.4786L9.50369 17.4793L9.50362 17.4795L9.5032 17.4803L9.50293 17.4808L9.50278 17.4811L9.50236 17.4819L9.50217 17.4823L9.50194 17.4827L9.50151 17.4835L9.50139 17.4838L9.50109 17.4843L9.50066 17.4852L9.50061 17.4853L9.50024 17.486L9.49981 17.4868L9.49981 17.4868L9.49938 17.4876L9.49901 17.4883L9.49896 17.4884L9.49853 17.4893L9.4982 17.4899L9.4981 17.4901L9.49768 17.4909L9.49737 17.4915L9.49725 17.4917L9.49682 17.4926L9.49654 17.4931L9.49639 17.4934L9.49596 17.4942L9.4957 17.4947L9.49553 17.495L9.49511 17.4959L9.49485 17.4964L9.49468 17.4967L9.49425 17.4975L9.49398 17.498L9.49382 17.4983L9.49339 17.4992L9.49311 17.4997L9.49296 17.5L9.49254 17.5008L9.49223 17.5014L9.49211 17.5016L9.49168 17.5025L9.49134 17.5031L9.49125 17.5033L9.49082 17.5041L9.49043 17.5049L9.4904 17.5049L9.48997 17.5057L9.48955 17.5066L9.48952 17.5066L9.48912 17.5074L9.4887 17.5082L9.4886 17.5084L9.48827 17.509L9.48785 17.5098L9.48766 17.5102L9.48742 17.5106L9.487 17.5115L9.48672 17.512L9.48658 17.5123L9.48616 17.5131L9.48577 17.5138L9.48574 17.5139L9.48532 17.5147L9.4849 17.5155L9.4848 17.5157L9.48448 17.5163L9.48407 17.5171L9.48383 17.5176L9.48365 17.5179L9.48324 17.5187L9.48285 17.5195L9.48282 17.5195L9.48241 17.5203L9.482 17.5211L9.48185 17.5214L9.48159 17.5219L9.48118 17.5227L9.48085 17.5233L9.48077 17.5235L9.48036 17.5242L9.47996 17.525L9.47983 17.5253L9.47955 17.5258L9.47915 17.5266L9.4788 17.5272L9.47875 17.5273L9.47835 17.5281L9.47795 17.5289L9.47777 17.5292L9.47756 17.5296L9.47721 17.5303L9.47721 17.5303L9.47721 17.5303L9.4772 17.5303L9.4772 17.5303L9.47719 17.5303L9.47719 17.5304L9.47718 17.5304L9.47717 17.5304L9.47716 17.5304L9.47716 17.5304L9.47715 17.5304L9.47713 17.5305L9.47713 17.5305L9.4771 17.5305L9.4771 17.5305L9.47707 17.5306L9.47706 17.5306L9.47703 17.5307L9.47702 17.5307L9.47699 17.5307L9.47698 17.5308L9.47694 17.5308L9.47693 17.5308L9.47689 17.5309L9.47688 17.5309L9.47683 17.531L9.47677 17.5312L9.47676 17.5312L9.47672 17.5313L9.4767 17.5313L9.4767 17.5313L9.47664 17.5314L9.47662 17.5314L9.47656 17.5316L9.47654 17.5316L9.47649 17.5317L9.47646 17.5318L9.47641 17.5319L9.47638 17.5319L9.47637 17.5319L9.47632 17.532L9.47628 17.5321L9.47624 17.5322L9.47618 17.5323L9.47614 17.5324L9.47608 17.5325L9.47605 17.5325L9.47599 17.5327L9.47597 17.5327L9.47595 17.5327L9.47586 17.5329L9.47584 17.5329L9.47574 17.5331L9.47574 17.5331L9.47566 17.5333L9.47563 17.5334L9.47561 17.5334L9.4756 17.5334L9.47551 17.5336L9.47548 17.5336L9.47539 17.5338L9.47535 17.5339L9.47527 17.534L9.47521 17.5342L9.47521 17.5342L9.47514 17.5343L9.47506 17.5344L9.47501 17.5345L9.47491 17.5347L9.47488 17.5348L9.47483 17.5349L9.47475 17.535L9.47474 17.5351L9.4746 17.5353L9.47459 17.5354L9.47446 17.5356L9.47444 17.5356L9.47431 17.5359L9.47416 17.5362L9.47406 17.5364L9.474 17.5365L9.474 17.5365L9.47384 17.5368L9.47368 17.5371L9.47368 17.5371L9.47352 17.5374L9.47352 17.5374L9.47342 17.5376L9.47335 17.5377L9.47331 17.5378L9.47318 17.5381L9.473 17.5384L9.47293 17.5385L9.47285 17.5387L9.47282 17.5388L9.47264 17.5391L9.47256 17.5393L9.47246 17.5395L9.47246 17.5395L9.47228 17.5398L9.47227 17.5398L9.47219 17.54L9.47208 17.5402L9.47188 17.5406L9.47182 17.5407L9.47173 17.5409L9.47169 17.5409L9.47149 17.5413L9.47145 17.5414L9.47141 17.5415L9.47128 17.5417L9.47118 17.5419L9.47109 17.5421L9.47108 17.5421L9.47087 17.5425L9.47073 17.5428L9.47066 17.5429L9.47065 17.543L9.47044 17.5433L9.47037 17.5435L9.47037 17.5435L9.47022 17.5438L9.47012 17.544L9.47001 17.5442L9.47 17.5442L9.46978 17.5446L9.46965 17.5449L9.4696 17.545L9.46955 17.5451L9.46933 17.5455L9.46932 17.5455L9.4693 17.5455L9.46909 17.5459L9.46908 17.546L9.46895 17.5462L9.46885 17.5464L9.46861 17.5469L9.4686 17.5469L9.46858 17.5469L9.46837 17.5473L9.46831 17.5475L9.46826 17.5476L9.46813 17.5478L9.46808 17.5479L9.46791 17.5482L9.46789 17.5483L9.46764 17.5487L9.4676 17.5488L9.46757 17.5489L9.46739 17.5492L9.46729 17.5494L9.46723 17.5495L9.46713 17.5497L9.46712 17.5497L9.4669 17.5502L9.46688 17.5502L9.46665 17.5506L9.46662 17.5507L9.46657 17.5508L9.46636 17.5512L9.46628 17.5513L9.46624 17.5514L9.46619 17.5515L9.46609 17.5517L9.46591 17.5521L9.46583 17.5522L9.46573 17.5524L9.46559 17.5527L9.46556 17.5527L9.46529 17.5533L9.46529 17.5533L9.46529 17.5533L9.46526 17.5533L9.46502 17.5538L9.46495 17.5539L9.46485 17.5541L9.46474 17.5543L9.46463 17.5545L9.46447 17.5548L9.46442 17.5549L9.46432 17.5551L9.4643 17.5552L9.46419 17.5554L9.46401 17.5557L9.464 17.5557L9.4639 17.5559L9.4637 17.5563L9.46362 17.5565L9.46359 17.5565L9.4634 17.5569L9.46333 17.557L9.46332 17.5571L9.46318 17.5573L9.4631 17.5575L9.46305 17.5576L9.4628 17.5581L9.46278 17.5581L9.46276 17.5581L9.46251 17.5586L9.46246 17.5587L9.46239 17.5588L9.46234 17.5589L9.46222 17.5592L9.46217 17.5593L9.46201 17.5596L9.46193 17.5597L9.46187 17.5598L9.46164 17.5603L9.46164 17.5603L9.46158 17.5604L9.46138 17.5608L9.46136 17.5608L9.46128 17.561L9.46127 17.561L9.46109 17.5614L9.46097 17.5616L9.46092 17.5617L9.46081 17.5619L9.46067 17.5622L9.46057 17.5624L9.46054 17.5624L9.46043 17.5626L9.46036 17.5627L9.46027 17.5629L9.46022 17.563L9.46006 17.5633L9.46001 17.5634L9.45989 17.5637L9.45975 17.5639L9.45975 17.5639L9.45956 17.5643L9.45949 17.5644L9.45948 17.5644L9.45944 17.5645L9.45924 17.5649L9.45924 17.5649L9.45912 17.5651L9.45899 17.5654L9.45893 17.5655L9.45881 17.5657L9.45875 17.5659L9.45862 17.5661L9.45854 17.5663L9.4585 17.5663L9.45849 17.5663L9.45833 17.5667L9.45827 17.5668L9.45817 17.567L9.45804 17.5672L9.45803 17.5672L9.45786 17.5676L9.4578 17.5677L9.45776 17.5678L9.45761 17.568L9.45758 17.5681L9.45753 17.5682L9.45748 17.5683L9.45735 17.5685L9.45721 17.5688L9.45721 17.5688L9.45714 17.569L9.45695 17.5693L9.45692 17.5694L9.45689 17.5694L9.45671 17.5698L9.4567 17.5698L9.45669 17.5698L9.45656 17.5701L9.45651 17.5702L9.45645 17.5703L9.4563 17.5706L9.45623 17.5707L9.45621 17.5707L9.45611 17.5709L9.45598 17.5712L9.45591 17.5713L9.45591 17.5713L9.45578 17.5716L9.45576 17.5716L9.45572 17.5717L9.45558 17.572L9.45554 17.572L9.45554 17.572L9.45536 17.5724L9.45533 17.5724L9.45524 17.5726L9.45518 17.5727L9.45513 17.5728L9.45501 17.5731L9.45493 17.5732L9.45491 17.5732L9.45488 17.5733L9.45484 17.5734L9.45474 17.5736L9.45468 17.5737L9.45458 17.5739L9.45456 17.5739L9.45452 17.574L9.45438 17.5743L9.45437 17.5743L9.45424 17.5745L9.45422 17.5746L9.45421 17.5746L9.45407 17.5749L9.45405 17.5749L9.45398 17.575L9.45393 17.5751L9.4539 17.5752L9.45389 17.5752L9.4538 17.5754L9.45374 17.5755L9.45367 17.5756L9.4536 17.5758L9.45357 17.5758L9.45354 17.5759L9.45346 17.576L9.45342 17.5761L9.45334 17.5763L9.4533 17.5763L9.45323 17.5765L9.45321 17.5765L9.45319 17.5766L9.4531 17.5767L9.45309 17.5768L9.45299 17.5769L9.45289 17.5771L9.45289 17.5771L9.45288 17.5772L9.4528 17.5773L9.45278 17.5773L9.45271 17.5775L9.45269 17.5775L9.45263 17.5776L9.45261 17.5777L9.45256 17.5778L9.45254 17.5778L9.45253 17.5778L9.45249 17.5779L9.45246 17.578L9.45242 17.578L9.45239 17.5781L9.45236 17.5782L9.45233 17.5782L9.45231 17.5783L9.45228 17.5783L9.45226 17.5784L9.45223 17.5784L9.45222 17.5784L9.45221 17.5784L9.4522 17.5785L9.45219 17.5785L9.45218 17.5785L9.45215 17.5786L9.45214 17.5786L9.45212 17.5786L9.45211 17.5786L9.4521 17.5787L9.45209 17.5787L9.45208 17.5787L9.45208 17.5787L9.45207 17.5787L9.45207 17.5787L9.45206 17.5787L9.45206 17.5787L9.45186 17.5791L9.45151 17.5798L9.45135 17.5801L9.45117 17.5805L9.45082 17.5811L9.45049 17.5818L9.45047 17.5818L9.45012 17.5825L9.44977 17.5831L9.44963 17.5834L9.44942 17.5838L9.44907 17.5845L9.44879 17.585L9.44872 17.5852L9.44836 17.5859L9.44801 17.5865L9.44795 17.5866L9.44765 17.5872L9.4473 17.5879L9.44712 17.5882L9.44694 17.5886L9.44658 17.5893L9.4463 17.5898L9.44623 17.59L9.44587 17.5907L9.44551 17.5913L9.44549 17.5914L9.44515 17.592L9.44479 17.5927L9.44469 17.5929L9.44443 17.5934L9.44407 17.5941L9.44389 17.5945L9.4437 17.5948L9.44334 17.5955L9.44311 17.596L9.44298 17.5962L9.44262 17.5969L9.44233 17.5975L9.44225 17.5976L9.44189 17.5983L9.44155 17.599L9.44152 17.599L9.44116 17.5997L9.4408 17.6004L9.44079 17.6004L9.44043 17.6011L9.44007 17.6018L9.44004 17.6019L9.4397 17.6025L9.43934 17.6032L9.43929 17.6033L9.43897 17.6039L9.43861 17.6046L9.43855 17.6047L9.43824 17.6053L9.43788 17.606L9.43782 17.6062L9.43751 17.6067L9.43714 17.6074L9.43709 17.6075L9.43678 17.6082L9.43641 17.6089L9.43638 17.6089L9.43605 17.6096L9.43568 17.6103L9.43567 17.6103L9.43532 17.611L9.43497 17.6116L9.43496 17.6117L9.43459 17.6124L9.43428 17.613L9.43423 17.6131L9.43386 17.6138L9.43359 17.6143L9.4335 17.6145L9.43314 17.6152L9.43292 17.6156L9.43277 17.6159L9.43241 17.6166L9.43225 17.6169L9.43205 17.6173L9.43169 17.618L9.43159 17.6182L9.43133 17.6186L9.43097 17.6193L9.43093 17.6194L9.43061 17.62L9.43028 17.6207L9.43025 17.6207L9.42989 17.6214L9.42965 17.6219L9.42953 17.6221L9.42918 17.6228L9.42901 17.6231L9.42882 17.6235L9.42847 17.6242L9.42839 17.6243L9.42811 17.6248L9.42777 17.6255L9.42776 17.6255L9.4274 17.6262L9.42717 17.6267L9.42705 17.6269L9.4267 17.6276L9.42656 17.6278L9.42635 17.6282L9.426 17.6289L9.42597 17.629L9.42565 17.6296L9.42538 17.6301L9.4253 17.6303L9.42495 17.6309L9.4248 17.6312L9.42461 17.6316L9.42426 17.6322L9.42423 17.6323L9.42392 17.6329L9.42367 17.6334L9.42358 17.6336L9.42324 17.6342L9.42311 17.6345L9.4229 17.6349L9.42256 17.6355L9.42256 17.6355L9.42222 17.6362L9.42202 17.6366L9.42188 17.6368L9.42155 17.6375L9.42148 17.6376L9.42121 17.6381L9.42095 17.6386L9.42088 17.6388L9.42055 17.6394L9.42043 17.6396L9.42022 17.64L9.41991 17.6406L9.41989 17.6407L9.41957 17.6413L9.41941 17.6416L9.41924 17.6419L9.41892 17.6425L9.41891 17.6426L9.41859 17.6432L9.41841 17.6435L9.41827 17.6438L9.41795 17.6444L9.41793 17.6445L9.41764 17.645L9.41745 17.6454L9.41732 17.6456L9.41701 17.6462L9.41697 17.6463L9.41669 17.6468L9.41651 17.6472L9.41638 17.6474L9.41608 17.648L9.41605 17.6481L9.41577 17.6486L9.4156 17.6489L9.41546 17.6492L9.41516 17.6498L9.41515 17.6498L9.41486 17.6504L9.41471 17.6506L9.41456 17.6509L9.41428 17.6515L9.41426 17.6515L9.41397 17.6521L9.41385 17.6523L9.41367 17.6526L9.41344 17.6531L9.41338 17.6532L9.41309 17.6538L9.41302 17.6539L9.4128 17.6543L9.41262 17.6547L9.41252 17.6549L9.41224 17.6554L9.41222 17.6554L9.41195 17.6559L9.41183 17.6562L9.41168 17.6565L9.41144 17.6569L9.4114 17.657L9.41112 17.6575L9.41106 17.6577L9.41085 17.6581L9.41069 17.6584L9.41058 17.6586L9.41032 17.6591L9.41032 17.6591L9.41005 17.6596L9.40996 17.6598L9.40979 17.6601L9.40961 17.6605L9.40953 17.6606L9.40927 17.6611L9.40926 17.6611L9.40901 17.6616L9.40892 17.6618L9.40876 17.6621L9.40859 17.6624L9.40851 17.6626L9.40826 17.6631L9.40826 17.6631L9.40802 17.6635L9.40794 17.6637L9.40778 17.664L9.40762 17.6643L9.40754 17.6645L9.40744 17.6646L9.40731 17.6649L9.4073 17.6649L9.40707 17.6654L9.40701 17.6655L9.40683 17.6658L9.40671 17.666L9.40661 17.6662L9.40642 17.6666L9.40638 17.6667L9.40616 17.6671L9.40614 17.6671L9.40594 17.6675L9.40586 17.6677L9.40572 17.668L9.40559 17.6682L9.4055 17.6684L9.40532 17.6687L9.40529 17.6688L9.40508 17.6692L9.40506 17.6692L9.40488 17.6696L9.4048 17.6697L9.40468 17.67L9.40456 17.6702L9.40448 17.6703L9.40431 17.6707L9.40428 17.6707L9.40409 17.6711L9.40408 17.6711L9.4039 17.6715L9.40384 17.6716L9.40371 17.6718L9.40362 17.672L9.40353 17.6722L9.4034 17.6724L9.40334 17.6725L9.40318 17.6728L9.40317 17.6729L9.40299 17.6732L9.40298 17.6732L9.40282 17.6735L9.40277 17.6736L9.40265 17.6739L9.40258 17.674L9.40249 17.6742L9.40239 17.6744L9.40233 17.6745L9.4022 17.6747L9.40217 17.6748L9.40202 17.6751L9.40202 17.6751L9.40187 17.6754L9.40185 17.6754L9.40172 17.6756L9.40168 17.6757L9.40158 17.6759L9.40151 17.6761L9.40144 17.6762L9.40135 17.6764L9.4013 17.6765L9.4012 17.6766L9.40117 17.6767L9.40106 17.6769L9.40104 17.677L9.40092 17.6772L9.40091 17.6772L9.40079 17.6774L9.40078 17.6775L9.40068 17.6777L9.40065 17.6777L9.40056 17.6779L9.40052 17.678L9.40045 17.6781L9.4004 17.6782L9.40035 17.6783L9.40028 17.6784L9.40024 17.6785L9.40017 17.6786L9.40014 17.6787L9.40007 17.6788L9.40005 17.6789L9.39997 17.679L9.39996 17.679L9.39987 17.6792L9.39987 17.6792L9.39979 17.6794L9.39978 17.6794L9.39971 17.6795L9.3997 17.6795L9.39964 17.6797L9.39962 17.6797L9.39956 17.6798L9.39955 17.6798L9.3995 17.6799L9.39948 17.68L9.39944 17.6801L9.39941 17.6801L9.39938 17.6802L9.39935 17.6802L9.39932 17.6803L9.3993 17.6803L9.39927 17.6804L9.39925 17.6804L9.39923 17.6805L9.3992 17.6805L9.39919 17.6805L9.39916 17.6806L9.39915 17.6806L9.39913 17.6806L9.39912 17.6807L9.3991 17.6807L9.39909 17.6807L9.39907 17.6808L9.39906 17.6808L9.39905 17.6808L9.39904 17.6808L9.39903 17.6808L9.39903 17.6808L9.39902 17.6809L9.39902 17.6809L9.39901 17.6809L9.39901 17.6809L9.39901 17.6809L9.53213 17.75L9.66524 17.8192L9.66524 17.8191L9.66524 17.8191L9.66525 17.8191L9.66525 17.8191L9.66526 17.8191L9.66526 17.8191L9.66527 17.8191L9.66528 17.8191L9.66529 17.819L9.6653 17.819L9.66532 17.819L9.66533 17.819L9.66535 17.8189L9.66536 17.8189L9.66538 17.8189L9.66539 17.8189L9.66542 17.8188L9.66543 17.8188L9.66546 17.8187L9.66548 17.8187L9.6655 17.8186L9.66553 17.8186L9.66555 17.8185L9.66558 17.8185L9.66561 17.8184L9.66564 17.8184L9.66567 17.8183L9.66571 17.8183L9.66573 17.8182L9.66578 17.8181L9.6658 17.8181L9.66585 17.818L9.66587 17.8179L9.66593 17.8178L9.66594 17.8178L9.66601 17.8177L9.66602 17.8177L9.6661 17.8175L9.6661 17.8175L9.66619 17.8173L9.6662 17.8173L9.66628 17.8171L9.6663 17.8171L9.66638 17.817L9.6664 17.8169L9.66647 17.8168L9.66651 17.8167L9.66658 17.8166L9.66663 17.8165L9.66668 17.8164L9.66675 17.8162L9.66679 17.8162L9.66688 17.816L9.66691 17.8159L9.66701 17.8157L9.66702 17.8157L9.66714 17.8155L9.66715 17.8155L9.66727 17.8152L9.66729 17.8152L9.6674 17.815L9.66743 17.8149L9.66753 17.8147L9.66759 17.8146L9.66767 17.8145L9.66774 17.8143L9.66781 17.8142L9.66791 17.814L9.66795 17.8139L9.66808 17.8137L9.6681 17.8136L9.66825 17.8134L9.66825 17.8134L9.6684 17.8131L9.66843 17.813L9.66856 17.8128L9.66862 17.8127L9.66872 17.8124L9.66881 17.8123L9.66889 17.8121L9.669 17.8119L9.66905 17.8118L9.66921 17.8115L9.66922 17.8115L9.6694 17.8111L9.66942 17.8111L9.66958 17.8108L9.66963 17.8107L9.66964 17.8107L21.4609 24.3781Z" fill="black" stroke="black" stroke-width="0.3"/>
</svg>
