<svg width="124" height="124" viewBox="0 0 124 124" fill="none" xmlns="http://www.w3.org/2000/svg">
<path d="M120.005 63.5346C120.005 31.9204 94.3765 6.29199 62.7623 6.29199C31.1481 6.29199 5.51978 31.9204 5.51978 63.5346C5.51978 95.1488 31.1481 120.777 62.7623 120.777C94.3765 120.777 120.005 95.1488 120.005 63.5346Z" fill="#E7E7E7"/>
<path d="M13.8118 33.9969C13.8118 33.9969 37.8404 39.4866 48.9126 39.0409C59.9847 38.5951 55.6812 47.2094 52.4984 47.4322C49.3155 47.6551 30.1737 46.9864 25.915 45.7802C21.6563 44.5753 16.9038 43.6824 17.8453 36.6743C17.8453 36.6743 18.0586 34.0179 20.9833 34.1857C23.9081 34.3535 27.9772 34.8216 27.17 38.3696C26.3627 41.9176 22.4293 44.1268 22.765 39.842C23.1009 35.5571 23.3708 29.3646 26.6656 28.4599C29.9604 27.5552 28.313 38.5361 27.91 39.9757C27.5071 41.4154 28.1457 42.286 31.8106 42.6872C35.4754 43.0884 42.5692 43.993 46.7727 41.8507C50.9761 39.7083 51.7491 37.5317 49.3274 28.9621C46.907 20.3925 45.3939 43.5577 49.3616 43.2562C53.3293 42.9547 54.6408 47.2067 55.481 51.291C56.3212 55.3751 57.4313 60.3627 53.8666 57.3838C50.3032 54.4049 47.8485 49.2154 44.4195 48.8142C40.9903 48.413 33.3921 47.073 32.5177 51.224C31.6433 55.3751 31.0388 63.4767 32.9878 57.5176C34.9381 51.5584 33.828 49.2154 31.1047 48.5795C28.3815 47.9436 20.1103 43.424 16.6469 44.8964C13.1836 46.3689 10.8646 48.6123 11.6706 51.6922C12.4778 54.772 19.8403 50.7547 21.4877 49.4488C23.1351 48.1429 22.8322 43.7243 19.4373 42.151C16.0426 40.5776 13.4312 47.351 12.6121 49.6835C11.793 52.016 6.02255 73.0166 5.11392 76.0965C4.20661 79.1764 3.99328 80.2804 10.2694 82.1107C16.5456 83.9411 27.7533 85.7256 28.9635 84.1194C30.1737 82.5119 23.4946 80.5045 22.2397 80.0575C20.9847 79.6117 12.1973 76.5319 5.74207 77.8704C-0.71316 79.2091 2.604 81.6204 6.81793 83.1374C11.0318 84.6544 26.4088 88.138 28.7844 86.3536C31.16 84.5678 34.3653 78.4749 33.3566 71.5455C32.3478 64.6161 32.382 61.4352 31.1034 61.6031C29.826 61.7709 34.4996 74.5245 35.1382 76.3325C35.7769 78.1406 35.8665 84.3003 41.2458 84.5678C46.6252 84.8353 57.6538 84.1666 59.7161 82.2917C61.7782 80.4167 50.7496 81.8459 47.7919 82.47C44.8343 83.0941 37.1228 83.8086 36.4498 86.309C35.7769 88.8094 47.0742 89.0323 51.3777 88.4961C55.6812 87.9598 60.9486 88.3177 60.8473 84.5678C60.7458 80.818 52.3851 44.9319 53.3267 41.8519C54.2682 38.7721 56.5319 37.7009 62.0008 36.9418C67.4697 36.1826 80.6053 37.343 82.4871 37.6563C84.3702 37.9684 85.1774 38.7275 86.1625 40.7362C87.1475 42.7449 93.6934 44.6198 95.8897 43.1906C98.0868 41.7615 100.551 37.2538 103.063 36.4068C105.573 35.5585 108.084 38.6829 110.012 40.9146C111.94 43.1461 120.323 54.9293 121.04 56.938C121.757 58.9467 120.591 60.8662 116.982 62.9195C113.373 64.9727 114.517 62.8749 117.385 60.5542C120.255 58.2334 123.482 54.9307 123.415 58.5232C123.348 62.1158 115.84 68.2978 112.858 63.9684C109.877 59.639 106.784 52.3858 109.025 50.9133C111.266 49.4409 109.922 66.2681 109.922 70.4638C109.922 74.6595 110.145 95.5487 110.639 97.7357C111.133 99.9227 112.343 100.37 113.284 99.0743C114.226 97.7802 111.58 97.7802 108.084 98.3598C104.588 98.9406 93.3801 100.814 87.6426 100.547C81.905 100.279 76.3453 99.8322 75.1799 94.9679C74.0145 90.1022 74.1712 82.6929 74.5741 75.1276C74.9771 67.5622 75.2023 54.1269 76.9945 53.9709C78.788 53.8149 76.502 62.0502 74.3042 62.0056C72.1064 61.961 65.4733 57.3195 70.135 58.5691C74.7967 59.8187 79.6835 65.5549 76.1873 65.0632C72.691 64.5728 65.8987 59.8409 66.0554 58.4131C66.2121 56.9852 68.1505 48.8496 71.6138 45.9375C75.0772 43.0255 84.5585 36.8316 86.0044 35.6608C87.4504 34.4886 86.5089 29.8353 84.0542 30.0032C81.5996 30.171 84.6257 36.5314 87.3489 38.6738C90.0723 40.8161 97.7275 44.2199 115.569 42.2112" stroke="#222222" stroke-width="0.459462" stroke-miterlimit="10"/>
</svg>
