<svg width="132" height="124" viewBox="0 0 132 124" fill="none" xmlns="http://www.w3.org/2000/svg">
<path d="M128 62C128 27.7583 100.242 0 66 0C31.7583 0 4 27.7583 4 62C4 96.2417 31.7583 124 66 124C100.242 124 128 96.2417 128 62Z" fill="#E7E7E7"/>
<path d="M6.8473 14.8871C6.8473 14.8871 16.7197 14.2885 17.2741 15.5256C17.8284 16.7627 13.3097 18.5165 10.0977 21.2684C6.8869 24.0204 1.65315 28.1278 1.17682 31.0789C0.700501 34.03 1.17683 39.8126 2.72343 43.7619C4.27003 47.7111 4.27002 52.3762 8.66992 50.5216C13.071 48.6671 15.6273 47.2308 13.7837 39.2749C11.9401 31.319 10.6917 43.6424 15.151 58.0593C19.6103 72.4762 22.2283 79.4761 21.8114 81.1514C21.3945 82.8267 19.849 83.8729 18.8975 82.1683C17.946 80.4637 20.3253 78.6384 24.2198 78.6384C28.1154 78.6384 43.6758 75.7073 46.7294 74.6705C49.783 73.6336 52.9146 73.6337 52.5967 69.3658C52.2799 65.0979 47.9778 34.3697 47.859 31.0191C47.7402 27.6685 47.8194 24.6577 46.3916 25.2165C44.9638 25.7753 44.1125 28.6269 46.1634 32.4554C48.2154 36.284 50.3257 39.9029 51.3377 41.3392C52.3486 42.7755 53.7764 42.0268 55.2927 39.7541C56.8091 37.4813 61.478 32.7553 61.1204 31.5182C60.7629 30.2811 55.9659 22.5442 53.3898 19.4338C50.8137 16.3234 49.5244 12.9529 43.2507 13.0724C36.9769 13.1919 37.1248 12.3542 35.9066 14.388C34.6873 16.4218 32.4175 21.4278 27.0253 21.2274C21.6332 21.0283 17.0738 15.2854 14.7352 15.6439C12.3967 16.0024 14.4976 21.9058 17.6689 23.7802C20.8401 25.6547 28.8491 26.572 32.9322 23.2214C37.0154 19.8708 39.3551 14.6071 43.9937 13.7695C48.6323 12.9318 51.368 14.3681 54.5392 18.356C57.7105 22.3439 62.5087 29.8019 63.4997 31.756C64.4908 33.7101 65.8383 34.6673 63.0642 36.9811C60.2889 39.2937 49.7434 45.8343 47.4037 50.7009C45.064 55.5674 45.5007 62.1069 46.6898 65.0979C47.8788 68.0888 51.0512 68.6476 57.0769 66.574C63.1026 64.5004 57.9492 46.474 56.6006 58.7575C55.252 71.041 54.3809 78.6982 54.5788 81.0916C54.7768 83.4851 54.6976 86.9142 57.8293 88.1513C60.9609 89.3873 77.0977 88.3106 80.5065 87.753C83.9165 87.1942 84.5897 87.8326 84.4709 83.0868C84.3521 78.3409 85.6995 66.1768 86.2155 64.1032C86.7314 62.0296 88.1184 63.5046 87.4441 66.6162C86.7698 69.7266 84.4313 74.9516 83.7174 76.3868C83.0035 77.8219 79.8718 74.0741 77.7313 72.3989C75.5907 70.7236 71.5565 69.6375 73.7565 66.8856C75.9564 64.1337 84.9065 55.9084 88.2966 52.9772C91.6868 50.046 92.5789 49.2084 95.4334 52.5589C98.2878 55.9095 102.926 59.4382 107.09 58.1225C111.252 56.8069 111.996 54.772 111.698 53.3064C111.401 51.8408 108.101 58.7505 101.5 55.4901C94.8988 52.2297 92.8176 46.2479 91.2116 43.196C89.6056 40.1454 83.927 39.9954 83.2725 38.4103C82.618 36.8252 85.8102 36.086 85.5924 37.9019C85.3735 39.7178 82.7671 43.196 81.0132 44.5128C79.2592 45.8285 74.4121 49.0596 69.4171 45.6492C64.4221 42.2389 59.0696 37.6933 64.124 39.0992C69.1784 40.505 69.494 44.1965 76.1369 43.496C82.7799 42.7954 85.2651 38.8602 88.0905 39.3686C90.9158 39.8771 94.6321 47.5647 95.1969 48.5511C95.7618 49.5375 98.9132 54.8622 103.998 54.5037C109.083 54.1452 110.689 50.3764 113.304 52.1712C115.92 53.9659 124.276 59.2004 127.091 63.5878C129.906 67.9751 130.422 70.1683 130.976 72.4012C131.532 74.6341 122.254 79.4609 119.756 78.2237C117.258 76.9877 116.545 71.3246 117.655 70.8852C118.765 70.4471 120.629 78.5025 120.906 82.0523C121.183 85.602 121.54 96.9772 120.866 100.248C120.192 103.518 120.549 103.917 116.663 103.997C112.778 104.077 88.752 102.561 85.0648 101.404C81.3777 100.248 76.8974 98.2143 84.8273 98.294C92.7559 98.3736 124.156 99.9294 126.714 100.228" stroke="#222222" stroke-width="0.5" stroke-miterlimit="10"/>
</svg>
